<svg class="logo-sm" width="166" height="28" xmlns="http://www.w3.org/2000/svg">
    <defs>
        <linearGradient x1="0%" y1="50%" x2="99.999%" y2="50%" id="a">
            <stop stop-color="#0087FF" offset="0%"/>
            <stop stop-color="#00CDE9" offset="100%"/>
        </linearGradient>
    </defs>
    <g fill="none">
        <path d="M13.708 1.079c-1.021 0-2.001-.258-2.881-.734a13.524 13.524 0 0 0-2.734.913c1.552 1.393 3.546 2.187 5.643 2.187s4.091-.793 5.643-2.187a13.541 13.541 0 0 0-2.773-.922c-.885.482-1.87.744-2.898.744m.028 5.663c-3.227 0-6.268-1.378-8.478-3.747a14.018 14.018 0 0 0-2.31 2.323c1.261 1.352 2.743 2.476 4.38 3.279.259.127.525.248.789.358a14.52 14.52 0 0 0 3.371.955c.292.046.592.083.888.111.897.084 1.823.084 2.72 0a14.638 14.638 0 0 0 1.326-.185c.431-.081.864-.183 1.287-.303a14.63 14.63 0 0 0 2.436-.935c1.636-.802 3.118-1.927 4.38-3.279a13.993 13.993 0 0 0-2.31-2.323c-2.209 2.369-5.25 3.747-8.478 3.747m1.373 17.228a15.977 15.977 0 0 0 .514 4.023 13.514 13.514 0 0 0 3.124-.825 12.542 12.542 0 0 1-.415-3.198c0-5.705 3.857-10.602 9.065-11.902a14.153 14.153 0 0 0-.85-3.221c-6.628 1.692-11.439 7.895-11.439 15.124m-15.034-11.903c5.208 1.3 9.065 6.197 9.065 11.902 0 1.094-.142 2.163-.414 3.198a13.517 13.517 0 0 0 3.125.825 15.962 15.962 0 0 0 .51-4.394 16.348 16.348 0 0 0-.033-.735v-.001l-.029-.364a15.986 15.986 0 0 0-.082-.722 15.766 15.766 0 0 0-.113-.711 16.639 16.639 0 0 0-.144-.7 16.063 16.063 0 0 0-.489-1.695 15.88 15.88 0 0 0-.978-2.227c-2.041-3.821-5.543-6.556-9.57-7.59a14.152 14.152 0 0 0-.847 3.213m21.439 11.902c0 .545.056 1.079.151 1.605a13.991 13.991 0 0 0 2.19-1.945c.132-2.124 1.271-4.031 2.982-5.127a14.193 14.193 0 0 0 .635-3.034c-3.462 1.182-5.959 4.586-5.959 8.502m-20.864-5.419c1.652 1.093 2.756 2.952 2.905 5.014a13.966 13.966 0 0 0 2.25 2.01c.095-.526.151-1.06.151-1.605 0-3.916-2.496-7.319-5.958-8.502a14.169 14.169 0 0 0 .651 3.083"
              fill="url(#a)"/>
        <path d="M40.961 6.889c.737 0 1.988.132 3.752.397l.804.099-.101 2.021c-1.764-.199-3.082-.298-3.953-.298-.938 0-1.725.099-2.362.298-.636.199-1.139.541-1.508 1.026-.368.486-.631 1.132-.787 1.938-.157.806-.235 1.817-.235 3.03 0 1.214.067 2.236.201 3.063.134.828.386 1.496.754 2.004s.871.872 1.507 1.093c.637.221 1.458.331 2.463.331l3.953-.298.1 2.053c-1.05.155-1.959.271-2.73.348-.771.077-1.413.116-1.926.116-1.296 0-2.384-.16-3.267-.48-.882-.32-1.591-.828-2.127-1.523-.536-.696-.922-1.595-1.156-2.7-.235-1.104-.352-2.439-.352-4.008 0-1.567.128-2.892.385-3.974.257-1.081.664-1.959 1.223-2.633.558-.673 1.278-1.159 2.16-1.457.882-.298 1.948-.447 3.2-.447zm10.753 16.891v-23.78h2.513v23.78h-2.513zm9.213 0v-16.56h2.513v16.56h-2.513zm0-20.302v-2.882h2.513v2.881h-2.513zm11.424 6.856v13.447h-2.513v-16.56h2.479v1.159c1.675-.994 3.305-1.49 4.891-1.49 2.078 0 3.529.563 4.355 1.689.379-.22.815-.436 1.307-.646.491-.21 1.01-.392 1.558-.546a14.966 14.966 0 0 1 1.625-.364c.536-.088 1.027-.132 1.474-.132 1.116 0 2.038.138 2.764.414.726.276 1.306.729 1.742 1.358.435.629.737 1.469.904 2.517.167 1.049.251 2.335.251 3.858v8.744h-2.513v-8.678c0-1.148-.045-2.108-.134-2.881-.089-.773-.263-1.391-.519-1.855-.257-.464-.615-.789-1.072-.977-.458-.188-1.056-.282-1.792-.282-.737 0-1.497.105-2.278.315-.782.21-1.385.414-1.809.613l-.637.298c.29.707.436 2.318.436 4.835v8.611h-2.513v-8.545c0-1.192-.045-2.18-.134-2.965-.09-.783-.263-1.413-.519-1.888-.257-.474-.615-.806-1.072-.994-.458-.188-1.055-.282-1.792-.282-.715 0-1.447.105-2.195.315-.749.21-1.323.414-1.725.613l-.57.298zm39.062 1.888v8.479c.067.817.715 1.303 1.943 1.457l-.101 1.954c-1.764 0-3.093-.441-3.987-1.325-1.988.883-3.998 1.325-6.03 1.325-1.541 0-2.714-.43-3.518-1.292-.804-.861-1.206-2.098-1.206-3.709 0-1.612.413-2.799 1.24-3.561.826-.762 2.122-1.231 3.886-1.408l5.26-.497v-1.424c0-1.126-.246-1.932-.737-2.418-.491-.485-1.162-.729-2.01-.729-.893 0-1.804.028-2.73.083-.927.055-1.871.138-2.831.248l-1.038.099-.101-1.888c2.389-.485 4.567-.729 6.533-.729 1.898 0 3.277.425 4.137 1.275.86.85 1.29 2.202 1.29 4.057zm-10.319 6.756c0 2.032.849 3.047 2.546 3.047 1.496 0 2.993-.254 4.489-.761l.771-.265v-5.465l-4.958.464c-1.005.088-1.731.376-2.177.861-.447.486-.67 1.193-.67 2.12zm23.464-12.089c.737 0 1.988.132 3.752.397l.804.099-.101 2.021c-1.764-.199-3.082-.298-3.953-.298-.938 0-1.726.099-2.362.298-.636.199-1.139.541-1.507 1.026-.369.486-.631 1.132-.787 1.938-.156.806-.234 1.817-.234 3.03 0 1.214.067 2.236.201 3.063.134.828.385 1.496.754 2.004.368.508.871.872 1.507 1.093.637.221 1.458.331 2.463.331l3.953-.298.1 2.053c-1.05.155-1.96.271-2.73.348-.771.077-1.413.116-1.927.116-1.296 0-2.384-.16-3.267-.48-.882-.32-1.591-.828-2.127-1.523-.536-.696-.922-1.595-1.156-2.7-.235-1.104-.352-2.439-.352-4.008 0-1.567.128-2.892.385-3.974.257-1.081.665-1.959 1.223-2.633.558-.673 1.278-1.159 2.161-1.457.882-.298 1.948-.447 3.199-.447zm21.587 14.838l.972-.1.067 1.954c-1.273.177-2.452.309-3.534.397-1.084.088-2.083.132-2.999.132-2.412 0-4.12-.69-5.125-2.07s-1.508-3.527-1.508-6.442c0-5.807 2.334-8.71 7.002-8.71 2.278 0 3.97.624 5.075 1.871 1.106 1.248 1.658 3.208 1.658 5.879l-.134 1.888h-11.055c0 1.855.335 3.218 1.005 4.09.67.873 1.843 1.308 3.518 1.308 1.675 0 3.361-.067 5.058-.199zm-9.614-7.187h8.71c0-2.031-.33-3.466-.988-4.306-.659-.839-1.725-1.258-3.199-1.258-1.496 0-2.619.442-3.367 1.325-.748.883-1.134 2.297-1.156 4.239zm17.655 9.241v-23.78h2.513v23.78h-2.513zm9.303 0v-23.78h2.513v23.78h-2.513z"
              fill="#0F1820"/>
    </g>
</svg>